<?xml version="1.0" standalone="no"?>
<!DOCTYPE svg PUBLIC "-//W3C//DTD SVG 20010904//EN"
 "http://www.w3.org/TR/2001/REC-SVG-20010904/DTD/svg10.dtd">
<svg version="1.0" xmlns="http://www.w3.org/2000/svg"
 width="581.000000pt" height="581.000000pt" viewBox="0 0 581.000000 581.000000"
 preserveAspectRatio="xMidYMid meet">
<metadata>
Created by potrace 1.14, written by Peter Selinger 2001-2017
</metadata>
<g transform="translate(0.000000,581.000000) scale(0.100000,-0.100000)"
fill="#000000" stroke="none">
<path d="M672 3118 l3 -2693 22 -58 c61 -162 194 -288 358 -340 l70 -22 1785
0 1785 0 70 22 c160 50 289 171 353 330 l27 68 3 2693 2 2692 -2240 0 -2240 0
2 -2692z m4278 1873 l0 -620 -51 35 c-28 19 -55 34 -60 34 -5 0 -9 145 -9 338
0 399 -1 405 -89 493 -94 93 -54 89 -811 89 -757 0 -717 4 -811 -89 -87 -88
-89 -97 -89 -468 l0 -313 -130 0 -130 0 0 313 c0 371 -2 380 -89 468 -94 93
-54 89 -811 89 -757 0 -717 4 -811 -89 -88 -88 -89 -94 -90 -495 l0 -341 -50
-32 -49 -31 0 619 0 619 2040 0 2040 0 0 -619z m-2413 136 l28 -27 3 -305 3
-305 -701 0 -701 0 3 304 c3 288 4 305 23 326 11 12 29 26 40 31 11 4 302 7
647 6 l628 -2 27 -28z m2060 0 l28 -27 3 -305 3 -305 -701 0 -701 0 3 304 c3
288 4 305 23 326 11 12 29 26 40 31 11 4 302 7 647 6 l628 -2 27 -28z m-2655
-1330 c204 -100 299 -338 219 -547 -102 -267 -438 -365 -669 -196 -168 124
-224 352 -132 541 54 113 139 187 258 226 43 15 80 18 153 16 88 -2 103 -6
171 -40z m2281 5 c220 -100 316 -367 212 -587 -112 -236 -423 -319 -641 -171
-134 91 -212 267 -186 422 28 170 140 302 299 355 91 30 226 22 316 -19z
m-2313 -1148 c192 -76 306 -276 272 -475 -45 -264 -303 -427 -553 -349 -319
98 -419 491 -185 726 120 119 311 160 466 98z m2322 -17 c173 -85 274 -278
240 -457 -66 -356 -488 -493 -741 -240 -229 229 -137 612 174 723 38 13 74 17
151 15 93 -3 106 -6 176 -41z m-2383 -1122 c174 -41 303 -180 334 -359 31
-181 -69 -374 -237 -456 -181 -89 -390 -47 -523 104 -216 246 -90 634 232 712
68 17 119 16 194 -1z m2290 0 c88 -21 151 -58 216 -126 243 -255 101 -673
-248 -731 -133 -22 -265 20 -367 118 -71 68 -113 146 -131 244 -39 217 109
441 327 494 78 19 125 19 203 1z"/>
</g>
</svg>
